<?xml version="1.0" encoding="utf-8"?>
<!-- Generator: Adobe Illustrator 28.1.0, SVG Export Plug-In . SVG Version: 6.00 Build 0)  -->
<svg version="1.1" id="logo_x5F_AC_x5F_gbl_x5F_wrp"
	 xmlns="http://www.w3.org/2000/svg" xmlns:xlink="http://www.w3.org/1999/xlink" x="0px" y="0px" viewBox="0 0 349.7 479.1"
	 style="enable-background:new 0 0 349.7 479.1;" xml:space="preserve">
<style type="text/css">
	.st0{fill:url(#cadre_00000137842888168959032550000004372065998328421822_);}
	.st1{fill:url(#top_x5F_pencil_00000099631009207582846340000017373572701381160894_);}
	.st2{fill:url(#SVGID_1_);}
	.st3{fill:url(#SVGID_00000022542555092540749290000012808133197914542728_);}
	.st4{fill:url(#SVGID_00000168083921625062053310000002099668618707371180_);}
	.st5{fill:url(#SVGID_00000029023087652972020520000010851788662403470267_);}
	.st6{fill:url(#SVGID_00000103953597364935861790000015547751253860956834_);}
	.st7{fill:url(#SVGID_00000042001357341524029180000002125944836795051393_);}
	.st8{fill:url(#SVGID_00000117656094352270768590000014230598652054753189_);}
	.st9{fill:url(#SVGID_00000031929806660056197960000016414990385939268229_);}
	.st10{fill:url(#SVGID_00000142893729931348299790000008014454622433673881_);}
	.st11{fill:url(#SVGID_00000057854948871654835000000008834214577069894531_);}
</style>
<g id="logo_x5F_AC_x5F_grp">
	
		<linearGradient id="cadre_00000019661056147012077820000009273534346291539853_" gradientUnits="userSpaceOnUse" x1="174.8734" y1="23.8523" x2="174.8734" y2="373.599">
		<stop  offset="0" style="stop-color:#3B4A55"/>
		<stop  offset="0.1816" style="stop-color:#222B31"/>
		<stop  offset="1" style="stop-color:#000000"/>
	</linearGradient>
	<path id="cadre" style="fill:url(#cadre_00000019661056147012077820000009273534346291539853_);" d="M291.4,0h-233
		C26.1,0,0,26.1,0,58.4v362.3c0,32.2,26.1,58.4,58.4,58.4h233c32.2,0,58.4-26.1,58.4-58.4V58.4C349.7,26.1,323.6,0,291.4,0z
		 M312.7,420.1c0,11.9-9.7,21.6-21.6,21.6H58.6c-11.9,0-21.6-9.7-21.6-21.6V59c0-11.9,9.7-21.6,21.6-21.6h232.5
		c11.9,0,21.6,9.7,21.6,21.6V420.1z"/>
	
		<linearGradient id="top_x5F_pencil_00000007407067772883782690000015484396728429786262_" gradientUnits="userSpaceOnUse" x1="174.4524" y1="61.0779" x2="174.4524" y2="170.386">
		<stop  offset="0" style="stop-color:#3A4851"/>
		<stop  offset="1" style="stop-color:#0E191E"/>
	</linearGradient>
	<path id="top_x5F_pencil" style="fill:url(#top_x5F_pencil_00000007407067772883782690000015484396728429786262_);" d="
		M204.8,112.3l-30.4-55.9l-29.8,54.9L119.8,157v19h109.3v-19l0,0L204.8,112.3z M152.9,117.1c6.8,3.9,14.5,6.1,22.5,6.1
		c7.5,0,14.6-1.9,21.1-5.4l19.7,35.7l-84-0.7L152.9,117.1z"/>
	<g id="center_x5F_pencil">
		<polygon points="204.3,289.4 204.3,251.7 204.3,251.7 204.3,289.4 		"/>
		<path d="M144.6,346.5L144.6,346.5v95.4h-24.8c9,0,20.8,0.2,29.8,0.2c0-0.1,0.1-0.1,0.1-0.2h-5.1V346.5z"/>
		<path d="M89.5,351.5c-4.7,25.9,5.4,48.8,13,62c0.6,1.1,2.2,0.5,2.1-0.7c-1-12-0.6-30.3,8.1-49.1c2.1-4.6,4.5-8.8,7.1-12.7v-50.5
			C106.4,312.9,93.4,329.8,89.5,351.5z"/>
		<path d="M119.8,441.9v-27.6C119.7,423.1,119.6,431.9,119.8,441.9z"/>
		<polygon points="144.6,325.2 144.6,281.3 144.6,281.3 144.6,325.2 		"/>
		<polygon points="204.3,306.2 204.3,357.2 204.3,357.2 204.3,306.2 		"/>
		<path d="M258.7,243c-0.9-16.2-5.7-29.4-10.2-38.7c-1-2-3.9-1.8-4.5,0.3c-2.1,6.7-5.5,14.8-11.2,23c-1.2,1.7-2.4,3.3-3.6,4.8v40.2
			c7.8-6.3,14.6-12.8,17.4-16.2c-4,12.8-10.6,22.4-17.4,29.7v41.5c4-5.7,8-12.4,12.1-20.7C251,287.2,260.1,268.5,258.7,243z"/>
		<linearGradient id="SVGID_1_" gradientUnits="userSpaceOnUse" x1="119.8641" y1="194.6117" x2="119.8641" y2="369.2303">
			<stop  offset="0" style="stop-color:#0F1C21"/>
			<stop  offset="0.7875" style="stop-color:#000000"/>
		</linearGradient>
		<path class="st2" d="M119.8,386.8v27.6C119.9,405.6,120,396.8,119.8,386.8z"/>
		
			<linearGradient id="SVGID_00000022540684582991302660000004916468552210157743_" gradientUnits="userSpaceOnUse" x1="132.1883" y1="194.6117" x2="132.1883" y2="369.2303">
			<stop  offset="0" style="stop-color:#0F1C21"/>
			<stop  offset="0.7875" style="stop-color:#000000"/>
		</linearGradient>
		<path style="fill:url(#SVGID_00000022540684582991302660000004916468552210157743_);" d="M144.6,189.1h-24.8v111.4
			c9-8.4,18.1-14.7,24.8-19.2V189.1z"/>
		<path d="M144.6,346.5c-7.3,7.4-17.4,20.1-24.8,40.3c0.2,10,0.1,18.8,0,27.6v27.6h24.8V346.5z"/>
		
			<linearGradient id="SVGID_00000084496991013037490660000007035740966519557281_" gradientUnits="userSpaceOnUse" x1="132.1883" y1="194.6117" x2="132.1883" y2="369.2303">
			<stop  offset="0" style="stop-color:#0F1C21"/>
			<stop  offset="0.7875" style="stop-color:#000000"/>
		</linearGradient>
		<path style="fill:url(#SVGID_00000084496991013037490660000007035740966519557281_);" d="M144.6,346.5
			c-7.3,7.4-17.4,20.1-24.8,40.3c0.2,10,0.1,18.8,0,27.6v27.6h24.8V346.5z"/>
		<path d="M144.6,325.2v-44c-6.7,4.5-15.8,10.9-24.8,19.2V351C127,340.1,135.6,331.9,144.6,325.2z"/>
		
			<linearGradient id="SVGID_00000049189054446776258990000014520862381644159399_" gradientUnits="userSpaceOnUse" x1="132.1883" y1="194.6117" x2="132.1883" y2="369.2303">
			<stop  offset="0" style="stop-color:#0F1C21"/>
			<stop  offset="0.7875" style="stop-color:#000000"/>
		</linearGradient>
		<path style="fill:url(#SVGID_00000049189054446776258990000014520862381644159399_);" d="M144.6,325.2v-44
			c-6.7,4.5-15.8,10.9-24.8,19.2V351C127,340.1,135.6,331.9,144.6,325.2z"/>
		<path d="M174.5,324c-14.8,9.8-22.3,14.7-29.7,22.3c0,0-0.1,0.1-0.1,0.1v95.4h5.1c8.7-19.8,17.2-33.9,24.8-45.2V324z"/>
		
			<linearGradient id="SVGID_00000141429510333561585150000015408472178420766390_" gradientUnits="userSpaceOnUse" x1="159.5153" y1="194.6117" x2="159.5153" y2="442.1173">
			<stop  offset="0" style="stop-color:#26353A"/>
			<stop  offset="0.7136" style="stop-color:#030A0C"/>
		</linearGradient>
		<path style="fill:url(#SVGID_00000141429510333561585150000015408472178420766390_);" d="M174.5,324
			c-14.8,9.8-22.3,14.7-29.7,22.3c0,0-0.1,0.1-0.1,0.1v95.4h5.1c8.7-19.8,17.2-33.9,24.8-45.2V324z"/>
		<path d="M153.2,319.2c9.3-6.1,14.9-9.6,21.3-13.4v-41.2c-8.5,3.8-17.7,8.4-27.5,15c-0.7,0.5-1.5,1-2.4,1.6v44
			C147.4,323.1,150.3,321.1,153.2,319.2z"/>
		
			<linearGradient id="SVGID_00000173157241387746529630000003538007702110823821_" gradientUnits="userSpaceOnUse" x1="159.5153" y1="31.6648" x2="159.5153" y2="587.9749">
			<stop  offset="0" style="stop-color:#26353A"/>
			<stop  offset="0.7136" style="stop-color:#030A0C"/>
		</linearGradient>
		<path style="fill:url(#SVGID_00000173157241387746529630000003538007702110823821_);" d="M153.2,319.2c9.3-6.1,14.9-9.6,21.3-13.4
			V189.1h-29.9v136.1C147.4,323.1,150.3,321.1,153.2,319.2z"/>
		<path d="M174.9,323.7c-0.2,0.1-0.3,0.2-0.5,0.3v72.7c3.8-5.7,7.4-10.7,10.7-15.3c7.2-10,13.4-17.6,19.2-24.2v-51.1
			C197.9,309.9,190.4,313.5,174.9,323.7z"/>
		
			<linearGradient id="SVGID_00000145746223319135250200000004278390116499626135_" gradientUnits="userSpaceOnUse" x1="189.3896" y1="194.6117" x2="189.3896" y2="408.0158">
			<stop  offset="0" style="stop-color:#4D5963"/>
			<stop  offset="0.7381" style="stop-color:#131D20"/>
		</linearGradient>
		<path style="fill:url(#SVGID_00000145746223319135250200000004278390116499626135_);" d="M174.9,323.7c-0.2,0.1-0.3,0.2-0.5,0.3
			v72.7c3.8-5.7,7.4-10.7,10.7-15.3c7.2-10,13.4-17.6,19.2-24.2v-51.1C197.9,309.9,190.4,313.5,174.9,323.7z"/>
		<path d="M174.5,305.8c7-4.1,15-8.5,29.9-16.4v-37.6c-9,4.5-18.9,8-29.9,12.9V305.8z"/>
		
			<linearGradient id="SVGID_00000045612667034024349460000010982920126564720048_" gradientUnits="userSpaceOnUse" x1="189.3896" y1="65.7497" x2="189.3896" y2="526.4386">
			<stop  offset="0" style="stop-color:#4D5963"/>
			<stop  offset="0.7381" style="stop-color:#131D20"/>
		</linearGradient>
		<path style="fill:url(#SVGID_00000045612667034024349460000010982920126564720048_);" d="M174.5,305.8c7-4.1,15-8.5,29.9-16.4
			V189.1h-29.9V305.8z"/>
		<path d="M208.9,286.9c5.9-3.2,13.4-8.7,20.2-14.2v-40.2c-7.4,9.1-15.6,14.7-24.8,19.3v37.6C205.8,288.6,207.3,287.8,208.9,286.9z"
			/>
		
			<linearGradient id="SVGID_00000128454373699661305960000005459689558246466218_" gradientUnits="userSpaceOnUse" x1="216.7178" y1="121.5945" x2="216.7178" y2="535.9733">
			<stop  offset="0" style="stop-color:#1C262B"/>
			<stop  offset="6.910324e-02" style="stop-color:#192226"/>
			<stop  offset="0.6056" style="stop-color:#020806"/>
		</linearGradient>
		<path style="fill:url(#SVGID_00000128454373699661305960000005459689558246466218_);" d="M208.9,286.9c5.9-3.2,13.4-8.7,20.2-14.2
			v-83.6h-24.8v100.3C205.8,288.6,207.3,287.8,208.9,286.9z"/>
		<path d="M214.1,299.7c-3.6,2.8-6.5,4.6-9.7,6.5v51.1c9.3-10.6,17.1-18.5,24.8-29.5v-41.5C223.8,292,218.4,296.3,214.1,299.7z"/>
		
			<linearGradient id="SVGID_00000011712387734830018150000009315341238388573090_" gradientUnits="userSpaceOnUse" x1="216.7178" y1="194.1673" x2="216.7178" y2="429.3068">
			<stop  offset="0" style="stop-color:#1C262B"/>
			<stop  offset="6.910324e-02" style="stop-color:#192226"/>
			<stop  offset="0.6056" style="stop-color:#020806"/>
		</linearGradient>
		<path style="fill:url(#SVGID_00000011712387734830018150000009315341238388573090_);" d="M214.1,299.7c-3.6,2.8-6.5,4.6-9.7,6.5
			v51.1c9.3-10.6,17.1-18.5,24.8-29.5v-41.5C223.8,292,218.4,296.3,214.1,299.7z"/>
	</g>
	<g id="curvy_x5F_line_x5F_bottom">
		<path d="M245.6,256.7c-12.4,14.1-27.2,26-43.3,35.7c-12,7.2-25.1,12.4-37,19.9c-11.6,7.5-23,16-32.9,25.4
			c-13.4,12.7-22.5,29.5-26.3,47.5c-2,9-2.7,18.3-2.5,27.7c-1.4-9.3-1.3-18.8,0.2-28.1c3-18.8,12.7-36.3,26.3-49.4
			c13.8-12.9,29.1-24.2,46-32.5c8.4-4.1,16.9-7.9,24.9-12.6c8-4.6,15.6-10,23-15.7c7.4-5.7,14.4-11.7,21.4-18
			C245.4,256.5,245.6,256.7,245.6,256.7L245.6,256.7z"/>
	</g>
	<g id="curvy_x5F_line_x5F_top">
		<path d="M248.5,204.3c10.3,20.2,13.9,44.1,8.4,66.3c-2.6,11.1-7.2,21.6-12.1,31.8c-2.4,4.9-5.1,10.4-7.8,15.2
			c-8.2,15-20.1,27.7-31.2,40.4c-14.7,17-27.9,35.5-39.6,54.7c-5.7,9.7-10.8,19.7-16.7,29.5c6.7-21.8,19.6-41.1,32.7-59.5
			c6.6-9.2,13.6-18.2,21.1-26.7c7.5-8.5,15.4-16.6,22.1-25.6c6.8-8.9,12.2-18.9,17.2-28.9C259.8,269.3,264,238.2,248.5,204.3
			L248.5,204.3z"/>
	</g>
</g>
</svg>
