<?xml version="1.0" encoding="utf-8"?>
<!-- Generator: Adobe Illustrator 28.1.0, SVG Export Plug-In . SVG Version: 6.00 Build 0)  -->
<svg version="1.1" id="logo_x5F_AC_x5F_gbl_x5F_wrp"
	 xmlns="http://www.w3.org/2000/svg" xmlns:xlink="http://www.w3.org/1999/xlink" x="0px" y="0px" viewBox="0 0 398.1 176.7"
	 style="enable-background:new 0 0 398.1 176.7;" xml:space="preserve">
<style type="text/css">
	.st0{fill:url(#top_x5F_pencil_00000132790787411287190780000006386380861578627459_);}
	.st1{fill:url(#SVGID_1_);}
	.st2{fill:url(#SVGID_00000155841423858377884430000016084717673759502742_);}
	.st3{fill:url(#SVGID_00000037681502458125800180000013839586114976440192_);}
	.st4{fill:url(#SVGID_00000036957302958888201850000009044485759231241381_);}
	.st5{fill:url(#SVGID_00000137820285890407860260000003911606524954343583_);}
	.st6{fill:url(#SVGID_00000081611566921688621010000017108099115429669796_);}
	.st7{fill:url(#SVGID_00000139257271326112259820000001981867970841696433_);}
	.st8{fill:url(#SVGID_00000160152340563250669510000017798125647816112813_);}
	.st9{fill:url(#SVGID_00000180362192110275244310000012921899840396263608_);}
	.st10{fill:url(#SVGID_00000183248971806296268220000001496191782533606810_);}
</style>
<g id="logo_x5F_AC_x5F_grp">
	
		<linearGradient id="top_x5F_pencil_00000091004721543030054700000002533925868905975971_" gradientUnits="userSpaceOnUse" x1="208.2975" y1="-89.1447" x2="208.2975" y2="20.1634" gradientTransform="matrix(-6.123234e-17 1 -1 -6.123234e-17 298.0518 -119.3852)">
		<stop  offset="0" style="stop-color:#3A4851"/>
		<stop  offset="1" style="stop-color:#0E191E"/>
	</linearGradient>
	<path id="top_x5F_pencil" style="fill:url(#top_x5F_pencil_00000091004721543030054700000002533925868905975971_);" d="M336,119.3
		l55.9-30.4L337,59.1l-45.8-24.9h-19v109.3h19l0,0L336,119.3z M331.2,67.3c-3.9,6.8-6.1,14.5-6.1,22.5c0,7.5,1.9,14.6,5.4,21.1
		l-35.7,19.7l0.7-84L331.2,67.3z"/>
	<g id="center_x5F_pencil">
		<polygon points="158.9,118.8 196.5,118.8 196.5,118.8 158.9,118.8 		"/>
		<path d="M101.8,59L101.8,59H6.4V34.3c0,9-0.2,20.8-0.2,29.8c0.1,0,0.1,0.1,0.2,0.1V59H101.8z"/>
		<path d="M96.8,3.9C70.8-0.7,48,9.3,34.8,17c-1.1,0.6-0.5,2.2,0.7,2.1c12-1,30.3-0.6,49.1,8.1c4.6,2.1,8.8,4.5,12.7,7.1h50.5
			C135.3,20.9,118.5,7.9,96.8,3.9z"/>
		<path d="M6.4,34.3h27.6C25.2,34.1,16.4,34,6.4,34.3z"/>
		<polygon points="123.1,59 167,59 167,59 123.1,59 		"/>
		<polygon points="142.1,118.8 91,118.8 91,118.8 142.1,118.8 		"/>
		<path d="M205.3,173.1c16.2-0.9,29.4-5.7,38.7-10.2c2-1,1.8-3.9-0.3-4.5c-6.7-2.1-14.8-5.5-23-11.2c-1.7-1.2-3.3-2.4-4.8-3.6h-40.2
			c6.3,7.8,12.8,14.6,16.2,17.4c-12.8-4-22.4-10.6-29.7-17.4h-41.5c5.7,4,12.4,8,20.7,12.1C161,165.5,179.8,174.5,205.3,173.1z"/>
		
			<linearGradient id="SVGID_1_" gradientUnits="userSpaceOnUse" x1="153.7092" y1="44.3891" x2="153.7092" y2="219.0076" gradientTransform="matrix(-6.123234e-17 1 -1 -6.123234e-17 298.0518 -119.3852)">
			<stop  offset="0" style="stop-color:#0F1C21"/>
			<stop  offset="0.7875" style="stop-color:#000000"/>
		</linearGradient>
		<path class="st1" d="M61.5,34.3H33.9C42.7,34.4,51.5,34.5,61.5,34.3z"/>
		
			<linearGradient id="SVGID_00000085210278003255158500000010016354958441693081_" gradientUnits="userSpaceOnUse" x1="166.0334" y1="44.3891" x2="166.0334" y2="219.0076" gradientTransform="matrix(-6.123234e-17 1 -1 -6.123234e-17 298.0518 -119.3852)">
			<stop  offset="0" style="stop-color:#0F1C21"/>
			<stop  offset="0.7875" style="stop-color:#000000"/>
		</linearGradient>
		<path style="fill:url(#SVGID_00000085210278003255158500000010016354958441693081_);" d="M259.2,59V34.3H147.8
			c8.4,9,14.7,18.1,19.2,24.8H259.2z"/>
		<path d="M101.8,59c-7.4-7.3-20.1-17.4-40.3-24.8c-10,0.2-18.8,0.1-27.6,0H6.4V59H101.8z"/>
		
			<linearGradient id="SVGID_00000173875867840599938710000015252840674653451933_" gradientUnits="userSpaceOnUse" x1="166.0334" y1="44.3891" x2="166.0334" y2="219.0076" gradientTransform="matrix(-6.123234e-17 1 -1 -6.123234e-17 298.0518 -119.3852)">
			<stop  offset="0" style="stop-color:#0F1C21"/>
			<stop  offset="0.7875" style="stop-color:#000000"/>
		</linearGradient>
		<path style="fill:url(#SVGID_00000173875867840599938710000015252840674653451933_);" d="M101.8,59c-7.4-7.3-20.1-17.4-40.3-24.8
			c-10,0.2-18.8,0.1-27.6,0H6.4V59H101.8z"/>
		<path d="M123.1,59h44c-4.5-6.7-10.9-15.8-19.2-24.8H97.3C108.2,41.4,116.4,50.1,123.1,59z"/>
		
			<linearGradient id="SVGID_00000098939589377411954640000015557540380019794621_" gradientUnits="userSpaceOnUse" x1="166.0334" y1="44.3891" x2="166.0334" y2="219.0076" gradientTransform="matrix(-6.123234e-17 1 -1 -6.123234e-17 298.0518 -119.3852)">
			<stop  offset="0" style="stop-color:#0F1C21"/>
			<stop  offset="0.7875" style="stop-color:#000000"/>
		</linearGradient>
		<path style="fill:url(#SVGID_00000098939589377411954640000015557540380019794621_);" d="M123.1,59h44
			c-4.5-6.7-10.9-15.8-19.2-24.8H97.3C108.2,41.4,116.4,50.1,123.1,59z"/>
		<path d="M124.3,88.9c-9.8-14.8-14.7-22.3-22.3-29.7c0,0-0.1-0.1-0.1-0.1H6.4v5.1c19.8,8.7,33.9,17.2,45.2,24.8H124.3z"/>
		
			<linearGradient id="SVGID_00000016073915193292187640000014863856855370460802_" gradientUnits="userSpaceOnUse" x1="193.3604" y1="44.3891" x2="193.3604" y2="291.8946" gradientTransform="matrix(-6.123234e-17 1 -1 -6.123234e-17 298.0518 -119.3852)">
			<stop  offset="0" style="stop-color:#26353A"/>
			<stop  offset="0.7136" style="stop-color:#030A0C"/>
		</linearGradient>
		<path style="fill:url(#SVGID_00000016073915193292187640000014863856855370460802_);" d="M124.3,88.9
			c-9.8-14.8-14.7-22.3-22.3-29.7c0,0-0.1-0.1-0.1-0.1H6.4v5.1c19.8,8.7,33.9,17.2,45.2,24.8H124.3z"/>
		<path d="M129,67.6c6.1,9.3,9.6,14.9,13.4,21.3h41.2c-3.8-8.5-8.4-17.7-15-27.5c-0.5-0.7-1-1.5-1.6-2.4h-44
			C125.2,61.9,127.2,64.8,129,67.6z"/>
		
			<linearGradient id="SVGID_00000118398235342146029190000004415064181558729910_" gradientUnits="userSpaceOnUse" x1="193.3604" y1="-118.5578" x2="193.3604" y2="437.7522" gradientTransform="matrix(-6.123234e-17 1 -1 -6.123234e-17 298.0518 -119.3852)">
			<stop  offset="0" style="stop-color:#26353A"/>
			<stop  offset="0.7136" style="stop-color:#030A0C"/>
		</linearGradient>
		<path style="fill:url(#SVGID_00000118398235342146029190000004415064181558729910_);" d="M129,67.6c6.1,9.3,9.6,14.9,13.4,21.3
			h116.7V59H123.1C125.2,61.9,127.2,64.8,129,67.6z"/>
		<path d="M124.6,89.4c-0.1-0.2-0.2-0.3-0.3-0.5H51.6c5.7,3.8,10.7,7.4,15.3,10.7c10,7.2,17.6,13.4,24.2,19.2h51.1
			C138.4,112.4,134.8,104.9,124.6,89.4z"/>
		
			<linearGradient id="SVGID_00000034057698899471713010000011933316408777371288_" gradientUnits="userSpaceOnUse" x1="223.2347" y1="44.3891" x2="223.2347" y2="257.7932" gradientTransform="matrix(-6.123234e-17 1 -1 -6.123234e-17 298.0518 -119.3852)">
			<stop  offset="0" style="stop-color:#4D5963"/>
			<stop  offset="0.7381" style="stop-color:#131D20"/>
		</linearGradient>
		<path style="fill:url(#SVGID_00000034057698899471713010000011933316408777371288_);" d="M124.6,89.4c-0.1-0.2-0.2-0.3-0.3-0.5
			H51.6c5.7,3.8,10.7,7.4,15.3,10.7c10,7.2,17.6,13.4,24.2,19.2h51.1C138.4,112.4,134.8,104.9,124.6,89.4z"/>
		<path d="M142.5,88.9c4.1,7,8.5,15,16.4,29.9h37.6c-4.5-9-8-18.9-12.9-29.9H142.5z"/>
		
			<linearGradient id="SVGID_00000161601191352142801690000004677274508037516210_" gradientUnits="userSpaceOnUse" x1="223.2347" y1="-84.4729" x2="223.2347" y2="376.216" gradientTransform="matrix(-6.123234e-17 1 -1 -6.123234e-17 298.0518 -119.3852)">
			<stop  offset="0" style="stop-color:#4D5963"/>
			<stop  offset="0.7381" style="stop-color:#131D20"/>
		</linearGradient>
		<path style="fill:url(#SVGID_00000161601191352142801690000004677274508037516210_);" d="M142.5,88.9c4.1,7,8.5,15,16.4,29.9
			h100.3V88.9H142.5z"/>
		<path d="M161.3,123.3c3.2,5.9,8.7,13.4,14.2,20.2h40.2c-9.1-7.4-14.7-15.6-19.3-24.8h-37.6C159.7,120.2,160.5,121.7,161.3,123.3z"
			/>
		
			<linearGradient id="SVGID_00000029761498071193807980000013072972451085941179_" gradientUnits="userSpaceOnUse" x1="250.5629" y1="-28.6281" x2="250.5629" y2="385.7506" gradientTransform="matrix(-6.123234e-17 1 -1 -6.123234e-17 298.0518 -119.3852)">
			<stop  offset="0" style="stop-color:#1C262B"/>
			<stop  offset="6.910324e-02" style="stop-color:#192226"/>
			<stop  offset="0.6056" style="stop-color:#020806"/>
		</linearGradient>
		<path style="fill:url(#SVGID_00000029761498071193807980000013072972451085941179_);" d="M161.3,123.3c3.2,5.9,8.7,13.4,14.2,20.2
			h83.6v-24.8H158.9C159.7,120.2,160.5,121.7,161.3,123.3z"/>
		<path d="M148.6,128.5c-2.8-3.6-4.6-6.5-6.5-9.7H91c10.6,9.3,18.5,17.1,29.5,24.8H162C156.3,138.3,152,132.9,148.6,128.5z"/>
		
			<linearGradient id="SVGID_00000032642289091459539270000013332272290243543736_" gradientUnits="userSpaceOnUse" x1="250.5629" y1="43.9446" x2="250.5629" y2="279.0842" gradientTransform="matrix(-6.123234e-17 1 -1 -6.123234e-17 298.0518 -119.3852)">
			<stop  offset="0" style="stop-color:#1C262B"/>
			<stop  offset="6.910324e-02" style="stop-color:#192226"/>
			<stop  offset="0.6056" style="stop-color:#020806"/>
		</linearGradient>
		<path style="fill:url(#SVGID_00000032642289091459539270000013332272290243543736_);" d="M148.6,128.5c-2.8-3.6-4.6-6.5-6.5-9.7
			H91c10.6,9.3,18.5,17.1,29.5,24.8H162C156.3,138.3,152,132.9,148.6,128.5z"/>
	</g>
	<g id="curvy_x5F_line_x5F_bottom">
		<path d="M191.6,160c-14.1-12.4-26-27.2-35.7-43.3c-7.2-12-12.4-25.1-19.9-37c-7.5-11.6-16-23-25.4-32.9
			C98,33.4,81.2,24.3,63.1,20.6c-9-2-18.3-2.7-27.7-2.5c9.3-1.4,18.8-1.3,28.1,0.2c18.8,3,36.3,12.7,49.4,26.3
			c12.9,13.8,24.2,29.1,32.5,46c4.1,8.4,7.9,16.9,12.6,24.9c4.6,8,10,15.6,15.7,23c5.7,7.4,11.7,14.4,18,21.4
			C191.8,159.9,191.6,160,191.6,160L191.6,160z"/>
	</g>
	<g id="curvy_x5F_line_x5F_top">
		<path d="M244,162.9c-20.2,10.3-44.1,13.9-66.3,8.4c-11.1-2.6-21.6-7.2-31.8-12.1c-4.9-2.4-10.4-5.1-15.2-7.8
			c-15-8.2-27.7-20.1-40.4-31.2c-17-14.7-35.5-27.9-54.7-39.6C25.9,75,15.9,69.9,6.2,64.1C28,70.8,47.2,83.7,65.7,96.8
			c9.2,6.6,18.2,13.6,26.7,21.1c8.5,7.5,16.6,15.4,25.6,22.1c8.9,6.8,18.9,12.2,28.9,17.2C179,174.3,210.1,178.5,244,162.9
			L244,162.9z"/>
	</g>
</g>
</svg>
